# xmcd
#
# Track frame offsets: 
#        150
#        14100
#        29068
#        41673
#        59409
#        78043
#        95155
#        112352
#        130915
#        146998
#        165546
#        182132
#        197507
#        212428
#        227119
#        247262
#        263858
#        279452
#        293363
#        308616
#        325521
#
# Disc length: 4486 seconds
#
# Revision: 0
# Processed by: cddbd v1.5.2PL0 Copyright (c) Steve Scherf et al.
# Submitted via: ExactAudioCopy v0.95a5
#
DISCID=3b118415
DTITLE=楊千樺 - 瀼
DYEAR=2006
DGENRE=A Cappella
TTITLE0=天生注定
TTITLE1=我錯過了什麼
TTITLE2=有過去的女人
TTITLE3=烈女
TTITLE4=我的醉愛
TTITLE5=長信不如短信
TTITLE6=SINGLE
TTITLE7=簡愛
TTITLE8=勇
TTITLE9=飛水正傳
TTITLE10=野孩子
TTITLE11=咬唇
TTITLE12=熱血青年
TTITLE13=楊千樺
TTITLE14=妹妹
TTITLE15=閃靈
TTITLE16=大城小事
TTITLE17=滿場飛
TTITLE18=向左走向右走
TTITLE19=一生最愛
TTITLE20=花好月圖夜
EXTD=
EXTT0=
EXTT1=
EXTT2=
EXTT3=
EXTT4=
EXTT5=
EXTT6=
EXTT7=
EXTT8=
EXTT9=
EXTT10=
EXTT11=
EXTT12=
EXTT13=
EXTT14=
EXTT15=
EXTT16=
EXTT17=
EXTT18=
EXTT19=
EXTT20=
PLAYORDER=
